<mxfile host="app.diagrams.net" modified="2023-03-07T13:12:27.301Z" agent="5.0 (Windows NT 10.0; Win64; x64) AppleWebKit/537.36 (KHTML, like Gecko) Chrome/110.0.0.0 Safari/537.36" etag="0n_Yfx75gloy8kL6-QDk" version="21.0.2" type="github">
  <diagram name="Trang-1" id="g1GbY-IkLfsr5vtE-30y">
    <mxGraphModel dx="1434" dy="699" grid="1" gridSize="10" guides="1" tooltips="1" connect="1" arrows="1" fold="1" page="1" pageScale="1" pageWidth="1100" pageHeight="850" math="0" shadow="0">
      <root>
        <mxCell id="0" />
        <mxCell id="1" parent="0" />
        <mxCell id="CwKDyxf2LbZTRRDgNUst-1" value="" style="rounded=0;whiteSpace=wrap;html=1;" vertex="1" parent="1">
          <mxGeometry x="180" y="100" width="410" height="890" as="geometry" />
        </mxCell>
        <mxCell id="CwKDyxf2LbZTRRDgNUst-2" value="&lt;h1&gt;LOGO&lt;/h1&gt;" style="rounded=0;whiteSpace=wrap;html=1;" vertex="1" parent="1">
          <mxGeometry x="180" y="100" width="410" height="170" as="geometry" />
        </mxCell>
        <mxCell id="CwKDyxf2LbZTRRDgNUst-3" value="&lt;h2&gt;LOGO_2&lt;/h2&gt;" style="rounded=0;whiteSpace=wrap;html=1;" vertex="1" parent="1">
          <mxGeometry x="180" y="270" width="410" height="60" as="geometry" />
        </mxCell>
        <mxCell id="CwKDyxf2LbZTRRDgNUst-4" value="" style="sketch=0;pointerEvents=1;shadow=0;dashed=0;html=1;strokeColor=none;fillColor=#434445;aspect=fixed;labelPosition=center;verticalLabelPosition=bottom;verticalAlign=top;align=center;outlineConnect=0;shape=mxgraph.vvd.array_manager;" vertex="1" parent="1">
          <mxGeometry x="190" y="289.05" width="30" height="21.9" as="geometry" />
        </mxCell>
        <mxCell id="CwKDyxf2LbZTRRDgNUst-5" value="&lt;h3&gt;LOGO-3&lt;/h3&gt;" style="rounded=0;whiteSpace=wrap;html=1;" vertex="1" parent="1">
          <mxGeometry x="180" y="330" width="410" height="30" as="geometry" />
        </mxCell>
        <mxCell id="CwKDyxf2LbZTRRDgNUst-6" value="" style="rounded=0;whiteSpace=wrap;html=1;" vertex="1" parent="1">
          <mxGeometry x="220" y="395" width="330" height="205" as="geometry" />
        </mxCell>
        <mxCell id="CwKDyxf2LbZTRRDgNUst-8" style="edgeStyle=orthogonalEdgeStyle;rounded=0;orthogonalLoop=1;jettySize=auto;html=1;exitX=0.5;exitY=1;exitDx=0;exitDy=0;" edge="1" parent="1" source="CwKDyxf2LbZTRRDgNUst-6" target="CwKDyxf2LbZTRRDgNUst-6">
          <mxGeometry relative="1" as="geometry" />
        </mxCell>
        <mxCell id="CwKDyxf2LbZTRRDgNUst-9" value="" style="rounded=0;whiteSpace=wrap;html=1;" vertex="1" parent="1">
          <mxGeometry x="220" y="650" width="330" height="205" as="geometry" />
        </mxCell>
        <mxCell id="CwKDyxf2LbZTRRDgNUst-10" value="&lt;h5&gt;FOOTER&lt;/h5&gt;" style="rounded=0;whiteSpace=wrap;html=1;" vertex="1" parent="1">
          <mxGeometry x="180" y="900" width="410" height="90" as="geometry" />
        </mxCell>
      </root>
    </mxGraphModel>
  </diagram>
</mxfile>
